# xmcd
#
# Track frame offsets:
#	150
#	39495
#	58563
#	78013
#	103440
#	125930
#	147235
#	165787
#	184149
#	200639
#	220734
#	277076
#	298161
#	316378
#	332516
#
# Disc length: 4664
#
# Revision: 2
# Processed by: cddbd v1.5.1PL0 Copyright (c) Steve Scherf et al.
# Submitted via: Grip 3.0.5
# Normalized: r1:TSWAP
#
DISCID=e712360f
DTITLE=Various Artist - Diggin' Even Deeper #2
DYEAR=2004
DGENRE=Soul
TTITLE0=Les McCann and Eddie Harris - Compared to What
TTITLE1=Meters - Find Yourself
TTITLE2=Bill Withers - Lovely Day
TTITLE3=Bobby Womack - If You Think You're Loney Now
TTITLE4=Luther Vandross - Sugar and Spice (I Found My Girl)
TTITLE5=Anita Baker - Squeeze
TTITLE6=Lalah Hathaway - Family Affair
TTITLE7=MC 900 Ft Jesus - The City Sleeps (Radio Edit)
TTITLE8=Medeski Martin And Wood - Uninvisible
TTITLE9=Hakan Tuerkoezue Trio - Latin the Sun
TTITLE10=Cannon Ball Adderley - This Here
TTITLE11=Crusaders - Goin' Home
TTITLE12=Isley Brothers - Don't Let Me Be Lonely Tonight
TTITLE13=James Brown - Any Day Now
TTITLE14=Otis Redding - Try a little tenderness
EXTD=
EXTT0=
EXTT1=
EXTT2=
EXTT3=
EXTT4=
EXTT5=
EXTT6=
EXTT7=
EXTT8=
EXTT9=
EXTT10=
EXTT11=
EXTT12=
EXTT13=
EXTT14=
PLAYORDER=
